<svg width="71" height="70" viewBox="0 0 70 45" fill="none" xmlns="http://www.w3.org/2000/svg"><g filter="url(#filter0_d)"><circle cx="35.4" cy="21.8" r="16.8" fill="#F53838"/></g><path d="M35.4 5c-9.278 0-16.8 7.521-16.8 16.8 0 9.278 7.521 16.8 16.8 16.8s16.8-7.522 16.8-16.8C52.2 12.521 44.678 5 35.4 5zm6.834 13.762c.007.143.008.287.008.427 0 4.375-3.326 9.417-9.413 9.417a9.338 9.338 0 01-5.071-1.488c.257.032.521.044.789.044 1.55 0 2.977-.527 4.109-1.416a3.317 3.317 0 01-3.09-2.296 3.325 3.325 0 001.492-.058 3.31 3.31 0 01-2.654-3.244v-.04a3.32 3.32 0 001.5.415 3.307 3.307 0 01-1.024-4.421 9.406 9.406 0 006.82 3.46 3.31 3.31 0 015.638-3.019 6.646 6.646 0 002.1-.803 3.325 3.325 0 01-1.455 1.832 6.65 6.65 0 001.901-.523 6.709 6.709 0 01-1.65 1.713z" fill="#fff"/><defs><filter id="filter0_d" x=".6" y="0" width="69.6" height="69.6" filterUnits="userSpaceOnUse" color-interpolation-filters="sRGB"><feFlood flood-opacity="0" result="BackgroundImageFix"/><feColorMatrix in="SourceAlpha" values="0 0 0 0 0 0 0 0 0 0 0 0 0 0 0 0 0 0 127 0"/><feOffset dy="13"/><feGaussianBlur stdDeviation="9"/><feColorMatrix values="0 0 0 0 0.0658854 0 0 0 0 0.0730469 0 0 0 0 0.1375 0 0 0 0.08 0"/><feBlend in2="BackgroundImageFix" result="effect1_dropShadow"/><feBlend in="SourceGraphic" in2="effect1_dropShadow" result="shape"/></filter></defs></svg>