<svg width="70" height="70" viewBox="0 0 70 45" fill="none" xmlns="http://www.w3.org/2000/svg"><g filter="url(#filter0_d)"><circle cx="34.8" cy="21.8" r="16.8" fill="#F53838"/></g><path d="M34.8 5C25.522 5 18 12.521 18 21.8c0 9.278 7.521 16.8 16.8 16.8s16.8-7.522 16.8-16.8C51.6 12.521 44.078 5 34.8 5zm3.98 11.61h-2.526c-.299 0-.631.393-.631.916v1.824h3.158l-.477 2.6h-2.681v7.807h-2.98v-7.806h-2.704V19.35h2.703v-1.53c0-2.194 1.523-3.977 3.612-3.977h2.526v2.767z" fill="#fff"/><defs><filter id="filter0_d" x="0" y="0" width="69.6" height="69.6" filterUnits="userSpaceOnUse" color-interpolation-filters="sRGB"><feFlood flood-opacity="0" result="BackgroundImageFix"/><feColorMatrix in="SourceAlpha" values="0 0 0 0 0 0 0 0 0 0 0 0 0 0 0 0 0 0 127 0"/><feOffset dy="13"/><feGaussianBlur stdDeviation="9"/><feColorMatrix values="0 0 0 0 0.0658854 0 0 0 0 0.0730469 0 0 0 0 0.1375 0 0 0 0.08 0"/><feBlend in2="BackgroundImageFix" result="effect1_dropShadow"/><feBlend in="SourceGraphic" in2="effect1_dropShadow" result="shape"/></filter></defs></svg>