<svg width="70" height="70" viewBox="0 0 70 45" fill="none" xmlns="http://www.w3.org/2000/svg"><g filter="url(#filter0_d)"><circle cx="35" cy="21.8" r="16.8" fill="#F53838"/></g><path d="M40.25 21.8a5.25 5.25 0 01-10.5 0c0-.3.032-.591.086-.875H28v6.995c0 .486.394.88.88.88h12.241a.88.88 0 00.879-.88v-6.995h-1.836c.054.284.086.576.086.875zM35 25.3a3.501 3.501 0 10-.002-7.002A3.501 3.501 0 0035 25.3zm4.2-7.175h2.098a.527.527 0 00.527-.525v-2.098a.527.527 0 00-.527-.527H39.2a.527.527 0 00-.527.527V17.6a.53.53 0 00.527.525zM35 5a16.8 16.8 0 100 33.6A16.8 16.8 0 0035 5zm8.75 23.606a1.95 1.95 0 01-1.944 1.944H28.194a1.95 1.95 0 01-1.944-1.944V14.994a1.95 1.95 0 011.944-1.944h13.612a1.95 1.95 0 011.944 1.944v13.612z" fill="#fff"/><defs><filter id="filter0_d" x=".2" y="0" width="69.6" height="69.6" filterUnits="userSpaceOnUse" color-interpolation-filters="sRGB"><feFlood flood-opacity="0" result="BackgroundImageFix"/><feColorMatrix in="SourceAlpha" values="0 0 0 0 0 0 0 0 0 0 0 0 0 0 0 0 0 0 127 0"/><feOffset dy="13"/><feGaussianBlur stdDeviation="9"/><feColorMatrix values="0 0 0 0 0.0658854 0 0 0 0 0.0730469 0 0 0 0 0.1375 0 0 0 0.08 0"/><feBlend in2="BackgroundImageFix" result="effect1_dropShadow"/><feBlend in="SourceGraphic" in2="effect1_dropShadow" result="shape"/></filter></defs></svg>